PathFileType	4	(X/Y/Z)	Patient4_TMGait_0pt8_01_left_35.trc.trc
DataRate	CameraRate	NumFrames	NumMarkers	Units	OrigDataRate	OrigDataStartFrame	OrigNumFrames
88.607594936709	88.607594936709	6	33	mm	88.607594936709	124	       141
Frame#	Time	Sacral			L.Shoulder			Chest			R.Shoulder			Neck			R.ASIS			L.ASIS			R.Thigh.Superior			R.Thigh.Lateral			R.Thigh.Inferior			R.Patella			L.Thigh.Superior			L.Thigh.Lateral			L.Thigh.Inferior			L.Patella			L.Shank.Superior			L.Shank.Lateral			L.Shank.Inferior			R.Shank.Superior			R.Shank.Lateral			R.Shank.Inferior			R.Heel			R.Midfoot.Superior			R.Midfoot.Lateral			R.Toe			L.Heel			L.Midfoot.Lateral			L.Midfoot.Superior			L.Toe			L.Elbow			L.Wrist			R.Elbow			R.Wrist			
		X1	Y1	Z1	X2	Y2	Z2	X3	Y3	Z3	X4	Y4	Z4	X5	Y5	Z5	X6	Y6	Z6	X7	Y7	Z7	X8	Y8	Z8	X9	Y9	Z9	X10	Y10	Z10	X11	Y11	Z11	X12	Y12	Z12	X13	Y13	Z13	X14	Y14	Z14	X15	Y15	Z15	X16	Y16	Z16	X17	Y17	Z17	X18	Y18	Z18	X19	Y19	Z19	X20	Y20	Z20	X21	Y21	Z21	X22	Y22	Z22	X23	Y23	Z23	X24	Y24	Z24	X25	Y25	Z25	X26	Y26	Z26	X27	Y27	Z27	X28	Y28	Z28	X29	Y29	Z29	X30	Y30	Z30	X31	Y31	Z31	X32	Y32	Z32	X33	Y33	Z33	

124	39.998142857143	883.416018126463	995.900587627440	521.513291747112	1019.647568889467	1422.403301548100	327.096077421216	1152.732022609044	1352.114615406171	464.342618507051	1103.582101063266	1421.908105467731	652.607652588919	1032.365708470849	1479.076776285676	485.615371420081	1116.890054108126	923.636819807186	612.473394537761	1075.606351182614	944.358289730003	338.875882267586	1096.540157129533	709.396358126891	588.706845278776	983.650418087328	624.321709331285	652.934869449694	1034.825488325974	553.802493091244	572.183513391062	1008.411723279486	469.351456994878	576.283441602079	1156.743968932278	767.985972181385	368.240402669302	1106.542957049962	633.886428436072	296.056287207144	1218.473525501073	582.477835463215	347.973850940901	1245.673109778502	516.116855837880	345.635802526348	1230.633476669464	441.366556352480	339.250173061568	1162.706977979256	309.270963753588	298.598832234975	1255.258726348932	213.537756986668	348.993499502843	962.630358475583	391.028265606793	583.622447311417	874.496779675574	302.176538934858	648.096068390953	895.061048150685	202.022756870367	581.174208714814	736.273350880290	49.517073410289	549.951937101739	909.627550218551	96.958138315119	585.787153116195	819.264698727998	38.670248319533	623.360588263898	1027.513979742910	39.108389139541	613.613243199810	1176.522973590918	39.137983990821	397.002580789583	1244.758964260836	41.662871104990	311.731849364264	1318.628982715764	115.624083513533	328.364450204157	1449.032939204738	81.373035906637	292.895158154025	843.904166365254	1117.624025207119	251.174938947139	762.992089503453	871.936806522351	274.937834513236	1290.382030851433	1136.760970029250	748.643971551445	1527.845494857205	1208.256667686476	689.538699070121	
125	40.009428571429	884.627075156193	995.063735491088	518.275823111135	1020.255328762035	1421.538739520168	324.867528983467	1153.227073206665	1351.568737300372	462.399944270398	1103.383305505224	1421.260844070170	650.531078035093	1032.526456536534	1478.212605237111	483.399583863624	1117.647599640443	922.422095150206	610.586452356413	1077.759498333561	943.541880579024	336.744068997289	1096.506963231272	708.052429010078	587.359452487124	982.767044279726	623.665941383539	651.072633585983	1034.214049879263	552.403868650133	571.001627117215	1006.835596673002	467.522067430090	575.027983068356	1159.203607466538	766.795297586898	367.341823378739	1108.157589494356	632.571866667900	296.468896450744	1219.668498573344	580.846889148047	348.936569248323	1245.643765699538	513.105049950246	347.400084160708	1229.524972774562	437.983601234743	340.939200504845	1159.028902698700	307.155326943451	300.471412702851	1248.771223720755	209.556872065545	352.236080732570	959.597059361283	389.903448049613	582.558677286841	869.673934058590	302.991966568179	647.336831304521	888.486302818138	202.130151701574	581.011521025681	727.431707428587	51.465826150583	550.421105301900	901.156759493646	97.136983758355	585.997126926004	810.402464637057	39.381552860626	623.602000652848	1018.575999395931	38.737342084051	613.746351327215	1164.417907004863	38.241627846606	399.580458317938	1233.279365005985	39.502520894902	314.699912724784	1309.756988629751	110.332623450389	332.976845489619	1439.454087131460	71.615876390070	297.982020388567	842.279076049769	1118.605245294752	249.989890260085	758.491900568281	873.910509303464	274.721679620055	1292.773431077676	1138.337518690793	746.111140123415	1527.081305999348	1217.476240722270	686.333836251205	
126	40.020714285714	885.934114819292	994.513373847894	514.949620554309	1021.020522571054	1420.891526762588	322.578678722691	1153.861592808783	1351.273299680352	460.431655698806	1103.297066895957	1420.845977032118	648.445895582654	1032.828040021373	1477.619795502547	481.097282405017	1118.498691874211	921.434710634006	608.494272695805	1079.936260567398	943.064359029871	334.505481855374	1096.649130892645	706.952499148269	585.876535480421	982.148078374153	623.198728691137	649.097220664471	1033.978139019365	551.181504559157	569.743247591829	1005.716821123209	465.749344339141	573.791979611068	1161.434034577476	765.703358759693	366.320089320404	1109.607308668670	631.661587658681	296.381139698414	1220.523851712577	579.412915620472	349.694262114887	1245.291937294287	510.486180705166	348.809326929765	1228.230457029227	435.100123475661	342.120896691820	1155.569074660548	305.473627117277	301.524358475391	1242.510992482822	206.199043508524	354.736618372440	956.900995310497	388.909894241586	581.523286267393	865.082989033633	304.104023670998	646.540368425214	882.147603915119	202.496891911516	580.941234924540	718.672877176569	53.913068162690	550.977508661857	892.903347313105	97.404574433621	586.349209463582	801.591806273505	40.300852348464	623.900234636328	1009.645582007199	38.391829680043	613.852494155099	1152.873341003186	37.679787745682	401.354689186723	1222.375469060528	37.900864247023	316.885914962936	1301.102636158950	105.913207414934	336.800439467649	1430.183751744899	63.305784712217	302.355725764355	841.693763128333	1119.148089067351	248.566426338917	755.496434521620	875.305496187852	274.032308308839	1294.449677378005	1139.450098665021	743.781654604968	1525.687118062730	1225.410723697176	683.423281843324	
127	40.032000000000	887.291208902943	994.299909310198	511.586243392620	1021.945178992792	1420.517051382282	320.256760655903	1154.632153146415	1351.259590176124	458.457083758007	1103.344404882766	1420.711841286282	646.365594877907	1033.272689235698	1477.341503959247	478.740824178361	1119.404808760571	920.730679694141	606.190996231271	1082.072571219107	942.966600866896	332.164371229573	1096.949544214328	706.149641400125	584.219094328200	981.853482561391	622.936321998772	647.038750065335	1034.162896177419	550.180429914165	568.399042253714	1005.142956527765	464.054427502246	572.632186124742	1163.372430034676	764.803645768714	365.145610684292	1110.887849437091	631.222367686916	295.702300666608	1221.024344130606	578.258531012672	350.094372650059	1244.624589057869	508.363602887805	349.692100980443	1226.763760534491	432.792803639556	342.711886439000	1152.351555510450	304.287720708654	301.693047222583	1236.517306264306	203.549473345487	356.427070870125	954.612571497497	388.076485634568	580.566258605110	860.800754745116	305.549761323825	645.742330349876	876.116117477107	203.161197223093	580.992436065428	710.046777266841	56.946433856543	551.629749055057	884.917429197974	97.764589387866	586.854536869803	792.859852420382	41.474824781627	624.255813457605	1000.721112537089	38.084743350579	613.918742735892	1142.088509627616	37.421020790558	402.385735576782	1212.177370534681	36.836833648385	318.299205857353	1292.710292207027	102.487117369614	339.696645598917	1421.281590126653	56.731568781870	305.796586780871	842.146138365371	1119.283073920446	246.879151657327	754.058947738874	876.107255933393	272.840565075193	1295.379203527924	1140.079011160835	741.675460254988	1523.730693631457	1232.021291465461	680.815362238299	
128	40.043285714286	888.649857240892	994.453115605166	508.225306173805	1023.022409872296	1420.462323295067	317.929574046154	1155.526043151202	1351.545153210125	456.493638033569	1103.536177112471	1420.892680867758	644.299225626912	1033.851146096451	1477.405099285767	476.366641730872	1120.324305857406	920.355320754338	603.678632731735	1084.111699328227	943.271184492874	329.717919161810	1097.414335019365	705.685630244125	582.355673889923	981.966809989738	622.875870878585	644.925713041933	1034.848464776055	549.430612930246	566.965493908369	1005.233974693009	462.446925275331	571.611241280575	1164.989073003384	764.187278744059	363.773164784392	1111.996705184680	631.280132887202	294.401409977017	1221.163315095423	577.422653222737	350.012761164755	1243.635117993831	506.761965848506	349.942747181910	1225.102494551145	431.060708705425	342.703666486225	1149.303981230009	303.598407479650	301.022585135095	1230.724044028972	201.603844939460	357.340621331852	952.837943511286	387.419953631930	579.735984904507	856.936315892687	307.357715488940	644.979286596882	870.484365455117	204.154728997120	581.187947598831	701.625400710956	60.663663915857	552.381190327686	877.256023329329	98.225274563982	587.515855099424	784.247449689324	42.967849420170	624.665180068290	991.804025390862	37.823632740936	613.934303231864	1132.085112049953	37.401876449231	402.793809382510	1202.657589196371	36.235015864671	319.023818730978	1284.528650450998	100.051410911995	341.646936093258	1412.701944401660	51.949035947125	308.220782492369	843.610863502372	1119.063969729867	244.906135547235	754.231499433700	876.320974255830	271.123446437469	1295.520512860768	1140.218454422054	739.803650738921	1521.270455208079	1237.260507293046	678.519058486884	
129	40.054571428571	889.966190581383	994.976379096717	504.889078667994	1024.237095570482	1420.758728165916	315.621755387315	1156.521325117860	1352.131272343144	454.556081035389	1103.866220182649	1421.401375715019	642.252224676931	1034.542838935686	1477.817650332660	474.010525565981	1121.216496304515	920.335952751374	600.967538203639	1086.011293332550	943.978194055760	327.159532271578	1098.076794001785	705.584834737006	580.269191964502	982.588096116976	622.994706243116	642.782158228258	1036.144501462443	548.943151340938	565.446990587117	1006.132654660370	460.924738424445	570.787998355719	1166.284315386934	763.917423582633	362.144570489044	1112.901386972880	631.802001098957	292.519744870304	1220.921974842620	576.885428525795	349.374179799845	1242.293119239418	505.629252744825	349.541863664498	1223.187239489598	429.835540326705	342.160766089457	1146.284448101756	303.347133043494	299.660943907014	1225.002806593807	200.284408980171	357.595749666782	951.711566640957	386.943510799268	579.070554191345	853.626811528690	309.546873563320	644.282334801473	865.362053564389	205.503627428105	581.539042369712	693.505023275297	65.173435335626	553.227454434838	869.981346022700	98.805388078511	588.325809986545	775.810855905830	44.867525854671	625.120654480458	982.899818548684	37.608099352512	613.892678950882	1122.758175804131	37.544916691818	402.732021668926	1193.687314669401	35.989676322154	319.195361251938	1276.459641718085	98.502618611484	342.740508405271	1404.342886284549	48.811225348540	309.676855092216	846.039153181224	1118.561081453139	242.628994023648	756.064010808964	875.969847500101	268.865011703469	1294.822327098772	1139.874410283932	738.166718245056	1518.354040378289	1241.068442170807	676.544772065544	
